/* XPM */
static const char *add_xpm[] = {
/* width height num_colors chars_per_pixel */
"    24    24      256            2",
/* colors */
"`` c None",
"`. c #9cbb9c",
"`# c #58aa58",
"`a c #48c048",
"`b c #54d854",
"`c c #55e455",
"`d c #47d347",
"`e c #4cb14c",
"`f c #7f9e7f",
"`g c #abaaab",
"`h c #94b994",
"`i c #48c448",
"`j c #8df88d",
"`k c #e5ffe5",
"`l c #fefefe",
"`m c #c7ffc7",
"`n c #83fd83",
"`o c #62ef62",
"`p c #35c735",
"`q c #8c9f8c",
"`r c #59b359",
"`s c #62e662",
"`t c #a6ffa6",
"`u c #f7fff7",
"`v c #f0fff0",
"`w c #ebfeeb",
"`x c #b0f7b0",
"`y c #5cea5c",
"`z c #67ec67",
"`A c #29ce29",
"`B c #85b085",
"`C c #46b246",
"`D c #62e962",
"`E c #77ee77",
"`F c #d7fbd7",
"`G c #ddffdd",
"`H c #daffda",
"`I c #d4ffd4",
"`J c #cffccf",
"`K c #ccfbcc",
"`L c #bcf7bc",
"`M c #5ce45c",
"`N c #44dd44",
"`O c #55e155",
"`P c #1bc31b",
"`Q c #98b498",
"`R c #51b151",
"`S c #51de51",
"`T c #4ae44a",
"`U c #98ee98",
"`V c #9bf29b",
"`W c #44bc44",
"`X c #6dcc6d",
"`Y c #7bce7b",
"`Z c #52ce52",
"`0 c #a8f5a8",
"`1 c #9df09d",
"`2 c #52e152",
"`3 c #3cd93c",
"`4 c #33d533",
"`5 c #46d946",
"`6 c #2abf2a",
"`7 c #8c8e8c",
"`8 c #8bb78b",
".` c #3dce3d",
".. c #3ad83a",
".# c #79e979",
".a c #80ed80",
".b c #dcefdc",
".c c #e9f3e9",
".d c #3dd43d",
".e c #70e970",
".f c #62e362",
".g c #35d535",
".h c #35ce35",
".i c #0ab90a",
".j c #a7dfa7",
".k c #999999",
".l c #28b528",
".m c #2dd12d",
".n c #42de42",
".o c #43e143",
".p c #16c316",
".q c #fbfcfb",
".r c #b8e3b8",
".s c #20d320",
".t c #33d933",
".u c #2cd42c",
".v c #20ca20",
".w c #1dc81d",
".x c #20c120",
".y c #58ce58",
".z c #767a76",
".A c #28c528",
".B c #19c519",
".C c #26ce26",
".D c #17bc17",
".E c #5ac35a",
".F c #5cc55c",
".G c #64c764",
".H c #c3e8c3",
".I c #69c969",
".J c #7ccd7c",
".K c #86cf86",
".L c #09b209",
".M c #13c313",
".N c #0dc00d",
".O c #25c425",
".P c #25b725",
".Q c #809680",
".R c #3faa3f",
".S c #15c515",
".T c #2bbb2b",
".U c #00b200",
".V c #01b901",
".W c #24c324",
".X c #15b215",
".Y c #84b484",
".Z c #a5a5a5",
".0 c #22b022",
".1 c #06bc06",
".2 c #04ba04",
".3 c #eef6ee",
".4 c #0bbe0b",
".5 c #32cb32",
".6 c #19b019",
".7 c #76af76",
".8 c #9e9e9e",
"#` c #28c928",
"#. c #28c328",
"## c #33c733",
"#a c #1eb21e",
"#b c #2eb82e",
"#c c #bbe6bb",
"#d c #4cbe4c",
"#e c #49be49",
"#f c #53c153",
"#g c #48ba48",
"#h c #19b919",
"#i c #2cb72c",
"#j c #70aa70",
"#k c #2ecf2e",
"#l c #30cf30",
"#m c #5dd55d",
"#n c #6dd76d",
"#o c #34c834",
"#p c #01b401",
"#q c #d9f0d9",
"#r c #00aa00",
"#s c #38c838",
"#t c #5bd65b",
"#u c #4bd04b",
"#v c #25c925",
"#w c #45c145",
"#x c #578257",
"#y c #2ccb2c",
"#z c #4bdd4b",
"#A c #6ede6e",
"#B c #85e085",
"#C c #75dc75",
"#D c #20b620",
"#E c #f4faf4",
"#F c #22b922",
"#G c #6ad76a",
"#H c #7ddb7d",
"#I c #83de83",
"#J c #5ad85a",
"#K c #31d131",
"#L c #5be15b",
"#M c #09aa09",
"#N c #57ce57",
"#O c #535b53",
"#P c #25a925",
"#Q c #6be16b",
"#R c #8be48b",
"#S c #92e492",
"#T c #98e998",
"#U c #ceebce",
"#V c #ddf1dd",
"#W c #b6e1b6",
"#X c #60d160",
"#Y c #76e276",
"#Z c #52da52",
"#0 c #3fd33f",
"#1 c #1bad1b",
"#2 c #52bd52",
"#3 c #737373",
"#4 c #568c56",
"#5 c #68f268",
"#6 c #88eb88",
"#7 c #a2eea2",
"#8 c #5ed05e",
"a` c #4ec74e",
"a. c #93eb93",
"a# c #80e680",
"aa c #66e366",
"ab c #67e967",
"ac c #3ac03a",
"ad c #477147",
"ae c #7ef87e",
"af c #9ded9d",
"ag c #a3f1a3",
"ah c #a8f1a8",
"ai c #87ea87",
"aj c #6fe86f",
"ak c #77f177",
"al c #37a637",
"am c #6d6d6d",
"an c #528652",
"ao c #4ae04a",
"ap c #8bfc8b",
"aq c #83f483",
"ar c #94f294",
"as c #85ef85",
"at c #72ef72",
"au c #7af37a",
"av c #00a400",
"aw c #12ac12",
"ax c #4f574f",
"ay c #288b28",
"az c #41da41",
"aA c #95fe95",
"aB c #98f898",
"aC c #9af69a",
"aD c #8cf58c",
"aE c #85f885",
"aF c #8efc8e",
"aG c #5fe35f",
"aH c #06a906",
"aI c #445944",
"aJ c #adadad",
"aK c #2b852b",
"aL c #08b408",
"aM c #a1ffa1",
"aN c #0f950f",
"aO c #597859",
"aP c #0c9f0c",
"aQ c #00ae00",
"aR c #08a308",
"aS c #306530",
"aT c #647064",
"aU c #3c6c3c",
"aV c #257b25",
"aW c #158b15",
"aX c #198619",
"aY c #2a702a",
"aZ c #4b5b4b",
"a0 c #a1a1a1",
"a1 c #000000",
"a2 c #000000",
"a3 c #000000",
"a4 c #000000",
"a5 c #000000",
"a6 c #000000",
"a7 c #000000",
"a8 c #000000",
/* pixels */
"````````````````````````````````````````````````",
"````````````````````````````````````````````````",
"```````````````````.`#`a`b`c`d`e`f`g````````````",
"```````````````h`i`j`k`l`l`l`m`n`o`p`q``````````",
"`````````````r`s`t`u`l`u`u`v`w`x`y`z`A`B````````",
"```````````C`D`E`F`G`H`I`J`J`K`L`M`N`O`P`Q``````",
"`````````R`S`T`U`L`V`W`X`Y`Z`0`1`2`3`4`5`6`7````",
"```````8.`..`N.#.a`5.b`l.c.d.e.f...g`A.h.i.j.k``",
"``````.l.m.m.g.n.o.p.q`l.r.s.t.u.m`A.v.w.x.y.z``",
"`````B.A.B.C.D.E.F.G`l`l.H.I.J.K.L.v.M.N.O.P.Q``",
"````.R.B.N.S.T`l`l`l`l`l`l`l`l`l.U.S.N.V.W.X.Y.Z",
"````.0.1.2.M`X`l`l`l`l`l`l`l`l.3.U.4.V.V.5.6.7.8",
"````#`.S#.###a#b#a#c`l`l#d#e#f#g#h.x.1.B.h#i#j.8",
"````#k#l#m#n`Z#o#p#q`l`l#r.O#s`Z#t#u#v.d.x#w#x``",
"````#y#z#A#B#B#C#D`l`l#E#F#G#H#I#C#J#K#L#M#N#O``",
"````#P`D#Q#R#S#T.l#U#V#W#X#S#S#R#Y#Z`O#0#1#2#3``",
"````#4#5`D#6#T#7#B#n#8a`#S#Ta.a#aa`Oab#Macad.k``",
"````.Z.Oae`Ea.afagahah#7#7a.aiaj`Dak.X.6alam````",
"``````anaoapaqar`1agag`Varasatauau.Xavawax.Z````",
"````````ayazaAaAaBaCaraDaEaEaFaGaHavaHaI.k``````",
"````````aJaKaL`SaFaMaMaAaE#Z#Mav#raNax.k````````",
"````````````aOaP#r#r#ravavavaQaRaSam.Z``````````",
"``````````````.8aTaUaVaWaXaYaZ#3.k``````````````",
"``````````````````````a0.8.Z````````````````````"
};
