/* XPM */
static const char *del_xpm[] = {
/* width height num_colors chars_per_pixel */
"    24    24      256            2",
/* colors */
"`` c None",
"`. c #b5a7a7",
"`# c #a56e6c",
"`a c #c1574e",
"`b c #c35446",
"`c c #d15c4b",
"`d c #bf4b3f",
"`e c #a34e4c",
"`f c #988081",
"`g c #adadad",
"`h c #bcabab",
"`i c #bc5752",
"`j c #ef8f73",
"`k c #ffe5d2",
"`l c #fefefe",
"`m c #ffe1cd",
"`n c #ffa988",
"`o c #f97960",
"`p c #ca3e38",
"`q c #9c8b8c",
"`r c #b27474",
"`s c #de624f",
"`t c #ffb395",
"`u c #fff8f1",
"`v c #fffbf7",
"`w c #fff7f4",
"`x c #fef3ef",
"`y c #fecaba",
"`z c #fe7b5f",
"`A c #ff816a",
"`B c #dd392d",
"`C c #ac7f7f",
"`D c #b1605f",
"`E c #f56f5a",
"`F c #ff896f",
"`G c #ffe0d5",
"`H c #ffebe0",
"`I c #fee5da",
"`J c #ffded3",
"`K c #ffd2c7",
"`L c #fb7d67",
"`M c #fa5d46",
"`N c #ff6a59",
"`O c #d6251e",
"`P c #b89898",
"`Q c #f45c4d",
"`R c #ff634b",
"`S c #ff9f8c",
"`T c #eaa59b",
"`U c #c76960",
"`V c #ffbba4",
"`W c #ffb39c",
"`X c #f7a08a",
"`Y c #a43735",
"`Z c #cd6d65",
"`0 c #ffb3a8",
"`1 c #fc7561",
"`2 c #f8513d",
"`3 c #f84534",
"`4 c #fd554a",
"`5 c #bf2221",
"`6 c #959292",
"`7 c #baa5a5",
"`8 c #da3931",
".` c #fe4e3d",
".. c #fd523c",
".# c #dd5d4f",
".a c #d4a8a9",
".b c #d1a6a9",
".c c #cf4330",
".d c #f06145",
".e c #b45754",
".f c #d0a1a2",
".g c #c74238",
".h c #fd5440",
".i c #f5372b",
".j c #fa4035",
".k c #dd1612",
".l c #dc9e9d",
".m c #909191",
".n c #b83d3b",
".o c #fd3f31",
".p c #fa3d2e",
".q c #d22b1e",
".r c #dec9cb",
".s c #c28383",
".t c #be7273",
".u c #b16f70",
".v c #e33325",
".w c #f53a2e",
".x c #f52c21",
".y c #f5221a",
".z c #f52e2a",
".A c #be3e3e",
".B c #837b7b",
".C c #b3a5a5",
".D c #e72624",
".E c #f83126",
".F c #e62a1e",
".G c #c28a8a",
".H c #c79090",
".I c #cd1a15",
".J c #fb3329",
".K c #f3110d",
".L c #fa312e",
".M c #ac110f",
".N c #b08f90",
".O c #aaaaaa",
".P c #a95d5d",
".Q c #fe211e",
".R c #f4120f",
".S c #fa2b20",
".T c #cb0c04",
".U c #dfc5c6",
".V c #b76464",
".W c #e11a10",
".X c #f7251d",
".Y c #f41a14",
".Z c #f31511",
".0 c #f20302",
".1 c #fb2626",
".2 c #b20605",
".3 c #d09d9e",
".4 c #9a9a9a",
".5 c #b12f30",
".6 c #fc1511",
".7 c #f61812",
".8 c #f81b13",
"#` c #bb0c08",
"#. c #e5d2d2",
"## c #9f2422",
"#a c #f1150d",
"#b c #f31d19",
"#c c #f30e0b",
"#d c #fb3330",
"#e c #ac0c08",
"#f c #d49292",
"#g c #8c8c8c",
"#h c #bc2524",
"#i c #fb211b",
"#j c #f42020",
"#k c #f4302e",
"#l c #b12521",
"#m c #f2f1f2",
"#n c #faffff",
"#o c #9e1314",
"#p c #f4201d",
"#q c #fb443e",
"#r c #aa110f",
"#s c #c97b7b",
"#t c #c72d29",
"#u c #fe3a33",
"#v c #f75756",
"#w c #c23433",
"#x c #ece4e4",
"#y c #b97070",
"#z c #9c0c0d",
"#A c #f64b49",
"#B c #f52924",
"#C c #f9342a",
"#D c #ec3a34",
"#E c #9d5e5e",
"#F c #ff584a",
"#G c #f9736b",
"#H c #f9807b",
"#I c #a73e3f",
"#J c #e0c7c7",
"#K c #b71110",
"#L c #cf0a04",
"#M c #d1a9aa",
"#N c #a84a4b",
"#O c #de5c59",
"#P c #fd7d79",
"#Q c #f7635d",
"#R c #f63c32",
"#S c #fb5b53",
"#T c #c01713",
"#U c #c54c4c",
"#V c #645050",
"#W c #983231",
"#X c #ff7767",
"#Y c #fa6f62",
"#Z c #fc928a",
"#0 c #de6d69",
"#1 c #a35354",
"#2 c #c84b49",
"#3 c #ff7773",
"#4 c #ac2d2c",
"#5 c #a13132",
"#6 c #ed7b78",
"#7 c #f86259",
"#8 c #fb5246",
"a` c #f86356",
"a. c #a50d0d",
"a# c #c54f50",
"aa c #656565",
"ab c #8e7070",
"ac c #f96c5c",
"ad c #fc7161",
"ae c #f98d87",
"af c #fda29c",
"ag c #e98782",
"ah c #fc9a94",
"ai c #f6938d",
"aj c #ff7d6c",
"ak c #b91a14",
"al c #b83435",
"am c #884848",
"an c #b6211b",
"ao c #fe9581",
"ap c #fe8976",
"aq c #fca7a0",
"ar c #fcaaa2",
"as c #fa8574",
"at c #d13f34",
"au c #b02b2c",
"av c #5e6060",
"aw c #866161",
"ax c #db4d41",
"ay c #ff9e8a",
"az c #fca493",
"aA c #fa9b8b",
"aB c #fb8878",
"aC c #fe836e",
"aD c #d3463b",
"aE c #9e0000",
"aF c #b30d0b",
"aG c #5c4444",
"aH c #853131",
"aI c #ffab94",
"aJ c #fda99b",
"aK c #fc947e",
"aL c #ba271f",
"aM c #a80000",
"aN c #613333",
"aO c #e7735f",
"aP c #ffbea7",
"aQ c #ffb4a3",
"aR c #f48f78",
"aS c #c63d31",
"aT c #a20202",
"aU c #574040",
"aV c #795b5b",
"aW c #b1140f",
"aX c #742121",
"aY c #5f5f5f",
"aZ c #a1a1a1",
"a0 c #706060",
"a1 c #782b2b",
"a2 c #8c1313",
"a3 c #5f3c3c",
"a4 c #000000",
"a5 c #000000",
"a6 c #000000",
"a7 c #000000",
"a8 c #000000",
/* pixels */
"````````````````````````````````````````````````",
"````````````````````````````````````````````````",
"```````````````````.`#`a`b`c`d`e`f`g````````````",
"```````````````h`i`j`k`l`l`l`m`n`o`p`q``````````",
"`````````````r`s`t`u`l`l`v`w`x`y`z`A`B`C`g``````",
"```````````D`E`F`G`H`I`I`I`G`J`K`L`M`N`O`P``````",
"`````````r`Q`R`S`T`U`V`W`X`Y`Z`0`1`2`3`4`5`6````",
"```````7`8.`...#.a.b.c.d.e`l.f.g.h`3.i.j.k.l.m``",
"``````.n.o.p.q.r`l`l.s.t`l`l`l.u.v.w.x.y.z.A.B``",
"````.C.D.y.E.F.G`l`l`l`l`l`l.H.I.J.x.y.K.L.M.N.O",
"````.P.Q.R.y.S.T.U`l`l`l`l.V.W.S.X.Y.Z.0.1.2.3.4",
"````.5.6.0.7.8#`#.`l`l`l`l###a.y#b#c.0.0#d#e#f#g",
"````#h#i#j#k#l#m`l`l`l`l`l#n#o#p.z#b.0.K#q#r#s#g",
"````#t#u#v#w#x`l`l#x#y`l`l`l#m#z#v#A#B#C#D.5#E``",
"````#l#F#G#H#I`l#J#K#L#M`l`l#N#O#P#Q#R#S#T#U#V``",
"````#W#X#Y#Z#0#1#2#P#3#4#.#5#6#Z#H#7#8a`a.a#aa``",
"````abacadaeafagafafafah#4aiahae#G#Sajakalam#g``",
"``````anaoapahaqarararaqaraf#Zas#Yapata.auav````",
"``````awaxayaoazararararazaAaBaCaoaDaEaFaG.4````",
"````````aHaxaIaIazaJaJazaoaoayaKaLaEaMaN#g``````",
"``````````aHaFaOaJaPaPaQaIaRaSaEaMaTaU#g````````",
"````````````aV#zaM#eaW#eaEaEaMaTaXaY.4``````````",
"``````````````aZa0a1a2a2a2aXa3aa.m``````````````",
"````````````````````aZ.4.4aZ````````````````````"
};
