/* XPM */
static const char *param_xpm[] = {
/* width height num_colors chars_per_pixel */
"    16    16      256            2",
/* colors */
"`` c None",
"`. c #bab09f",
"`# c #c9b078",
"`a c #ceb26c",
"`b c #d0b168",
"`c c #ae9970",
"`d c #a9a6a2",
"`e c #c3b8a7",
"`f c #e3c162",
"`g c #fefcc3",
"`h c #fffffb",
"`i c #ffff94",
"`j c #fee460",
"`k c #b39b6f",
"`l c #c5b393",
"`m c #f6d655",
"`n c #fffdb0",
"`o c #ffffea",
"`p c #ffffe5",
"`q c #fffedf",
"`r c #fffbd9",
"`s c #fff8b9",
"`t c #ffe947",
"`u c #ffe854",
"`v c #c6a772",
"`w c #c2b8a8",
"`x c #f4cd42",
"`y c #ffe747",
"`z c #fff1a3",
"`A c #e7b44e",
"`B c #fff582",
"`C c #f7da68",
"`D c #e6b144",
"`E c #fff089",
"`F c #ffde33",
"`G c #ffdc2a",
"`H c #ffca2b",
"`I c #989188",
"`J c #e0b245",
"`K c #ffda1d",
"`L c #ffdd2e",
"`M c #f4c837",
"`N c #e4a521",
"`O c #ffec49",
"`P c #eab01e",
"`Q c #e9b12c",
"`R c #ffe136",
"`S c #ffd720",
"`T c #ffd20e",
"`U c #ffd92a",
"`V c #edc074",
"`W c #a4a4a4",
"`X c #bdb4a6",
"`Y c #fed120",
"`Z c #ffcf03",
"`0 c #ffd719",
"`1 c #f1bd20",
"`2 c #f6c933",
"`3 c #ffe131",
"`4 c #ecb424",
"`5 c #f8ca2b",
"`6 c #ffd61a",
"`7 c #ffd00b",
"`8 c #ffcb00",
".` c #ffd823",
".. c #fbbb45",
".# c #818182",
".a c #c0a675",
".b c #ffdb16",
".c c #f0b101",
".d c #ffcf05",
".e c #ffd10a",
".f c #ffd311",
".g c #ffd312",
".h c #ffd20f",
".i c #ffd108",
".j c #f8bf02",
".k c #f9c200",
".l c #ffda29",
".m c #f9b63c",
".n c #757370",
".o c #bb9b59",
".p c #ffdf21",
".q c #eeb62a",
".r c #ffd934",
".s c #ffce0f",
".t c #ffcc03",
".u c #ffcb02",
".v c #ffcd09",
".w c #ffd118",
".x c #ffd936",
".y c #ebb01f",
".z c #ffd00a",
".A c #ffdb37",
".B c #f7b343",
".C c #73716e",
".D c #b9995a",
".E c #ffe840",
".F c #f1c24d",
".G c #ffe57a",
".H c #ffde54",
".I c #ffd52f",
".J c #ffd52c",
".K c #ffdb46",
".L c #ffe46a",
".M c #f9d565",
".N c #f2c03c",
".O c #ffd921",
".P c #f9c92f",
".Q c #e9ae53",
".R c #878787",
".S c #a89980",
".T c #ffec53",
".U c #ffe46c",
".V c #ebb749",
".W c #fee88c",
".X c #ffec8a",
".Y c #ffeb8a",
".Z c #ffeb8f",
".0 c #f3cd66",
".1 c #eebb44",
".2 c #ffe14c",
".3 c #ffe54d",
".4 c #eca31d",
".5 c #a7844e",
".6 c #ababab",
".7 c #ebb936",
".8 c #ffef62",
"#` c #fee781",
"#. c #eec156",
"## c #eab547",
"#a c #eab548",
"#b c #ebb849",
"#c c #f9da6d",
"#d c #ffe65d",
"#e c #ffe856",
"#f c #f1b727",
"#g c #e99f2b",
"#h c #6d6c6a",
"#i c #96846a",
"#j c #fede53",
"#k c #fff375",
"#l c #fff088",
"#m c #fff195",
"#n c #fff18f",
"#o c #ffed7b",
"#p c #ffeb63",
"#q c #ffed6a",
"#r c #f0b628",
"#s c #e69004",
"#t c #6c5d45",
"#u c #95794f",
"#v c #fabd2f",
"#w c #ffee75",
"#x c #fff68b",
"#y c #fff483",
"#z c #ffed73",
"#A c #f8cf49",
"#B c #e99a0b",
"#C c #e08b06",
"#D c #6b5b44",
"#E c #a6a6a6",
"#F c #89847d",
"#G c #aa7421",
"#H c #e49105",
"#I c #ec9503",
"#J c #e88f02",
"#K c #d48409",
"#L c #8a652b",
"#M c #717170",
"#N c #9d9d9d",
"#O c #868686",
"#P c #999999",
"#Q c #000000",
"#R c #000000",
"#S c #000000",
"#T c #000000",
"#U c #000000",
"#V c #000000",
"#W c #000000",
"#X c #000000",
"#Y c #000000",
"#Z c #000000",
"#0 c #000000",
"#1 c #000000",
"#2 c #000000",
"#3 c #000000",
"#4 c #000000",
"#5 c #000000",
"#6 c #000000",
"#7 c #000000",
"#8 c #000000",
"a` c #000000",
"a. c #000000",
"a# c #000000",
"aa c #000000",
"ab c #000000",
"ac c #000000",
"ad c #000000",
"ae c #000000",
"af c #000000",
"ag c #000000",
"ah c #000000",
"ai c #000000",
"aj c #000000",
"ak c #000000",
"al c #000000",
"am c #000000",
"an c #000000",
"ao c #000000",
"ap c #000000",
"aq c #000000",
"ar c #000000",
"as c #000000",
"at c #000000",
"au c #000000",
"av c #000000",
"aw c #000000",
"ax c #000000",
"ay c #000000",
"az c #000000",
"aA c #000000",
"aB c #000000",
"aC c #000000",
"aD c #000000",
"aE c #000000",
"aF c #000000",
"aG c #000000",
"aH c #000000",
"aI c #000000",
"aJ c #000000",
"aK c #000000",
"aL c #000000",
"aM c #000000",
"aN c #000000",
"aO c #000000",
"aP c #000000",
"aQ c #000000",
"aR c #000000",
"aS c #000000",
"aT c #000000",
"aU c #000000",
"aV c #000000",
"aW c #000000",
"aX c #000000",
"aY c #000000",
"aZ c #000000",
"a0 c #000000",
"a1 c #000000",
"a2 c #000000",
"a3 c #000000",
"a4 c #000000",
"a5 c #000000",
"a6 c #000000",
"a7 c #000000",
"a8 c #000000",
/* pixels */
"````````````````````````````````",
"`````````````.`#`a`b`c`d````````",
"`````````e`f`g`````h`i`j`k``````",
"```````l`m`n`o`p`q`r`s`t`u`v````",
"`````w`x`y`z`A`B`C`D`E`F`G`H`I``",
"`````J`K`L`M`N`O`P`Q`R`S`T`U`V`W",
"```X`Y`Z`0`1`2`3`4`5`6`7`8.`...#",
"``.a.b.c.d.e.f.g.h.i`Z.j.k.l.m.n",
"``.o.p.q.r.s.t.u.v.w.x.y.z.A.B.C",
"``.D.E.F.G.H.I.J.K.L.M.N.O.P.Q.R",
"``.S.T.U.V.W.X.Y.Z.0.1.2.3.4.5.6",
"````.7.8#`#.###a#b#c#d#e#f#g#h``",
"````#i#j#k#l#m#n#o#p#q#r#s#t````",
"``````#u#v#w#x#y#z#A#B#C#D#E````",
"````````#F#G#H#I#J#K#L#M````````",
"````````````#N#O#O#P````````````"
};
