/* XPM */
static const char *shape_xpm[] = {
/* width height num_colors chars_per_pixel */
"    16    16      256            2",
/* colors */
"`` c None",
"`. c #a4aeb4",
"`# c #92a5b1",
"`a c #aeafb0",
"`b c #a3aeb4",
"`c c #809cad",
"`d c #719ab2",
"`e c #70aed1",
"`f c #75b5d8",
"`g c #86c5e5",
"`h c #99d9f5",
"`i c #b6e5f9",
"`j c #d6f6ff",
"`k c #5bceff",
"`l c #6a92ab",
"`m c #80cdf1",
"`n c #ecffff",
"`o c #f1ffff",
"`p c #efffff",
"`q c #e6ffff",
"`r c #d6f7ff",
"`s c #c0eeff",
"`t c #b2e9ff",
"`u c #8bd3f7",
"`v c #a5c8dc",
"`w c #aed5e5",
"`x c #2bb2ff",
"`y c #5685a5",
"`z c #a0b2bd",
"`A c #86ddfe",
"`B c #9de3ff",
"`C c #ace4ff",
"`D c #bce9ff",
"`E c #cceeff",
"`F c #d8f2ff",
"`G c #e6f7ff",
"`H c #effaff",
"`I c #f4feff",
"`J c #f9ffff",
"`K c #beecff",
"`L c #29b0ff",
"`M c #5a86a5",
"`N c #7eaac3",
"`O c #91e2ff",
"`P c #f0ffff",
"`Q c #fcffff",
"`R c #feffff",
"`S c #fbffff",
"`T c #f7feff",
"`U c #f6ffff",
"`V c #f1fdff",
"`W c #b3e7ff",
"`X c #27adfd",
"`Y c #5b87a5",
"`Z c #6aafd4",
"`0 c #a2e7ff",
"`1 c #e1ffff",
"`2 c #defcff",
"`3 c #dffcff",
"`4 c #e0fcff",
"`5 c #e1fcff",
"`6 c #e3fdff",
"`7 c #e9fdff",
"`8 c #a9e5ff",
".` c #24aafc",
".. c #5c88a5",
".# c #7acbf0",
".a c #c5f4ff",
".b c #dffeff",
".c c #dbfcff",
".d c #dcfcff",
".e c #e2fdff",
".f c #eafdff",
".g c #fdffff",
".h c #a1e2ff",
".i c #23a9f9",
".j c #5f89a5",
".k c #9cb1bf",
".l c #85dcfe",
".m c #e3fcff",
".n c #e2fcff",
".o c #e7fdff",
".p c #ebfdff",
".q c #98dfff",
".r c #21a7f8",
".s c #6089a5",
".t c #78a8c4",
".u c #8adfff",
".v c #effdff",
".w c #f0fdff",
".x c #f3fdff",
".y c #90ddff",
".z c #22a8f7",
".A c #6089a4",
".B c #6bb2d8",
".C c #9be4ff",
".D c #edffff",
".E c #eaffff",
".F c #ecfeff",
".G c #eeffff",
".H c #f0feff",
".I c #f3feff",
".J c #f6feff",
".K c #89dbff",
".L c #1fa4f5",
".M c #6188a2",
".N c #7fd2f8",
".O c #9ce3ff",
".P c #afe7ff",
".Q c #b9ebff",
".R c #c2eeff",
".S c #c9f1ff",
".T c #cef2ff",
".U c #d3f3ff",
".V c #d9f6ff",
".W c #dff9ff",
".X c #eafbff",
".Y c #f8fdff",
".Z c #86daff",
".0 c #1ea3f5",
".1 c #60849a",
".2 c #a0acb5",
".3 c #0e88d6",
".4 c #0594ed",
".5 c #0d9cf6",
".6 c #1ba6fc",
".7 c #2eb1ff",
".8 c #3db9ff",
"#` c #4fc2ff",
"#. c #62cbff",
"## c #77d3ff",
"#a c #89daff",
"#b c #99dfff",
"#c c #ade6ff",
"#d c #87dcff",
"#e c #21a5f6",
"#f c #607a8d",
"#g c #aaaaaa",
"#h c #8d8d8d",
"#i c #76797c",
"#j c #5c6a74",
"#k c #42647d",
"#l c #296895",
"#m c #1772b1",
"#n c #0b7ecd",
"#o c #038be4",
"#p c #0696ef",
"#q c #109df6",
"#r c #1fa6fa",
"#s c #30b2fe",
"#t c #24a7f8",
"#u c #5d7c8f",
"#v c #a8a8a8",
"#w c #989898",
"#x c #828384",
"#y c #687077",
"#z c #4e6678",
"#A c #33678b",
"#B c #1e74ae",
"#C c #3f6884",
"#D c #000000",
"#E c #000000",
"#F c #000000",
"#G c #000000",
"#H c #000000",
"#I c #000000",
"#J c #000000",
"#K c #000000",
"#L c #000000",
"#M c #000000",
"#N c #000000",
"#O c #000000",
"#P c #000000",
"#Q c #000000",
"#R c #000000",
"#S c #000000",
"#T c #000000",
"#U c #000000",
"#V c #000000",
"#W c #000000",
"#X c #000000",
"#Y c #000000",
"#Z c #000000",
"#0 c #000000",
"#1 c #000000",
"#2 c #000000",
"#3 c #000000",
"#4 c #000000",
"#5 c #000000",
"#6 c #000000",
"#7 c #000000",
"#8 c #000000",
"a` c #000000",
"a. c #000000",
"a# c #000000",
"aa c #000000",
"ab c #000000",
"ac c #000000",
"ad c #000000",
"ae c #000000",
"af c #000000",
"ag c #000000",
"ah c #000000",
"ai c #000000",
"aj c #000000",
"ak c #000000",
"al c #000000",
"am c #000000",
"an c #000000",
"ao c #000000",
"ap c #000000",
"aq c #000000",
"ar c #000000",
"as c #000000",
"at c #000000",
"au c #000000",
"av c #000000",
"aw c #000000",
"ax c #000000",
"ay c #000000",
"az c #000000",
"aA c #000000",
"aB c #000000",
"aC c #000000",
"aD c #000000",
"aE c #000000",
"aF c #000000",
"aG c #000000",
"aH c #000000",
"aI c #000000",
"aJ c #000000",
"aK c #000000",
"aL c #000000",
"aM c #000000",
"aN c #000000",
"aO c #000000",
"aP c #000000",
"aQ c #000000",
"aR c #000000",
"aS c #000000",
"aT c #000000",
"aU c #000000",
"aV c #000000",
"aW c #000000",
"aX c #000000",
"aY c #000000",
"aZ c #000000",
"a0 c #000000",
"a1 c #000000",
"a2 c #000000",
"a3 c #000000",
"a4 c #000000",
"a5 c #000000",
"a6 c #000000",
"a7 c #000000",
"a8 c #000000",
/* pixels */
"````````````````````````````````",
"```````````````````````````.`#`a",
"`````````b`#`c`d`e`f`g`h`i`j`k`l",
"```````m`n`o`p`q`r`s`t`u`v`w`x`y",
"`````z`A`B`C`D`E`F`G`H`I`J`K`L`M",
"`````N`O`P`Q`R`S`J`T`U`V`S`W`X`Y",
"`````Z`0`1`2`3`3`4`5`6`7`Q`8.`..",
"````.#.a.b.c.c.c.d`2.e.f.g.h.i.j",
"``.k.l`2`6.m.m`5.n.m.o.p.g.q.r.s",
"``.t.u`P.v.v.v.v.w.w`V.x`R.y.z.A",
"``.B.C.D.E.F.G.G`P.H.I.J`R.K.L.M",
"``.N.O.P.Q.R.S.T.U.V.W.X.Y.Z.0.1",
".2.3.4.5.6.7.8#`#.###a#b#c#d#e#f",
"``#g#h#i#j#k#l#m#n#o#p#q#r#s#t#u",
"````````````````#v#w#x#y#z#A#B#C",
"````````````````````````````````"
};
