/* XPM */
static char *btn_hide_xpm[] = {
/* columns rows colors chars-per-pixel */
"10 11 2 1",
"x c white",
". c none",
/* pixels */
"..........",
"..........",
".xx....xx.",
"..xx..xx..",
"...xxxx...",
"....xx....",
"...xxxx...",
"..xx..xx..",
".xx....xx.",
"..........",
".........."
};
