/* XPM */
static char *btn_max_hp_xpm[] = {
/* columns rows colors chars-per-pixel */
"8 8 2 1",
"  c #002266",
". c none",
/* pixels */
"        ",
"        ",
"  ......",
"  ......",
"  .    .",
"  .    .",
"  .    .",
"  ......"
};
