/* XPM */
static char *dock_left_xpm[] = {
/* columns rows colors chars-per-pixel */
"20 20 10 1",
"  c black",
". c #0C0C0C",
"X c #191919",
"o c gray15",
"O c gray20",
"+ c #3F3F3F",
"@ c #4C4C4C",
"# c gray35",
"$ c gray40",
"% c #003399",
/* pixels */
"                    ",
" %%%%%%%  %%%%%%%%% ",
" %%%%%%  .%%%%%%%%% ",
" %%%%%  X.%%%%%%%%% ",
" %%%%  oX.%%%%%%%%% ",
" %%%  OoX.%%%%%%%%% ",
" %%  +OoX.%%%%%%%%% ",
" %  @+OoX.......... ",
"  X#@+OoXXXXXXXXXX. ",
"  $#@+OooooooooooX. ",
"  $#@+OooooooooooX. ",
"   #@+OoXXXXXXXXXX. ",
" %  @+OoX.......... ",
" %%  +OoX.%%%%%%%%% ",
" %%%  OoX.%%%%%%%%% ",
" %%%%  oX.%%%%%%%%% ",
" %%%%%  X.%%%%%%%%% ",
" %%%%%%  .%%%%%%%%% ",
" %%%%%%%  %%%%%%%%% ",
"                    "
};
